<?xml version="1.0" encoding="utf-8"?>
<!-- Generator: Adobe Illustrator 19.2.1, SVG Export Plug-In . SVG Version: 6.00 Build 0)  -->
<svg version="1.1" id="Layer_1" xmlns="http://www.w3.org/2000/svg" xmlns:xlink="http://www.w3.org/1999/xlink" x="0px" y="0px"
	 viewBox="0 0 24 24" style="enable-background:new 0 0 24 24;" xml:space="preserve">
<style type="text/css">
	.st0{fill:#FFFFFF;}
</style>
<path class="st0" d="M5.6,23l-1.4-1.4L7.8,18l1.4,1.4L5.6,23z M14.1,19.4L12.7,18l-3.6,3.6l1.4,1.4L14.1,19.4z M19,19.4L17.6,18
	L14,21.6l1.4,1.4L19,19.4z M24,12.7c0,2.4-1.9,4.3-4.4,4.3H9.4c-1.6,0-2.9-0.8-3.7-2H4.4C1.9,15,0,13.1,0,10.7
	c0-2.1,1.5-3.8,3.6-4.2C3.7,3.4,6.3,1,9.5,1c1.8,0,3.4,0.8,4.5,2c3.4-0.3,6.3,2.3,6.4,5.5C22.5,8.9,24,10.6,24,12.7z M8.6,8.5
	c0.1-2.1,1.4-3.9,3.2-4.9C11.2,3.3,10.5,3,9.5,3c-3.9,0-4.1,3.9-4,5.2C4.1,8.1,2,8.6,2,10.7C2,12,3.1,13,4.4,13H5
	C4.9,10.6,6.6,8.9,8.6,8.5z"/>
</svg>
